<svg id="svg" version="1.1" viewBox="0 0 300 300" width="300" height="300" xmlns="http://www.w3.org/2000/svg"><svg xmlns="http://www.w3.org/2000/svg"><defs><clipPath id="clip-1"><rect x="0" y="0" transform="scale(0.14648,0.14648)" width="2048" height="2048" fill="none"/></clipPath></defs><g clip-path="url(#clip-1)" fill="none" fill-rule="nonzero" stroke="none" stroke-width="1" stroke-linecap="butt" stroke-linejoin="miter" stroke-miterlimit="10" stroke-dasharray="" stroke-dashoffset="0" font-family="none" font-weight="none" font-size="none" text-anchor="none" style="mix-blend-mode: normal"><path d="M0,0h300v300h-300z" fill="#8e1e3a"/><path d="M187.57324,132.75981c3.70459,-0.01128 8.07715,-0.12158 11.72168,0.046c0.03223,1.03872 0.49219,5.13062 -0.53906,5.46548c-2.55908,0.83188 -6.98877,0.13521 -9.15967,2.21953c-2.52393,2.42373 -2.0918,7.77627 -2.09326,10.99453l-0.00293,10.67578l0.00293,29.65723c0.00439,5.36719 0.14648,10.83398 -0.03516,16.1499c-0.53613,15.76318 -11.96777,25.44287 -26.98389,27.39844c-3.11572,0.40576 -6.55811,0.33398 -9.72656,0.74121c-1.24365,0.15967 -3.47754,-0.45117 -4.79165,-0.42773c-3.22734,0.01758 -6.10474,-0.48926 -9.18486,-1.12793c-12.1749,-2.52393 -22.31133,-10.22754 -23.86567,-23.23242c-0.38804,-3.24756 -0.27686,-6.4248 -0.27378,-9.84375l0.00352,-15.74854l-0.01069,-29.02881c-0.00015,-5.68945 -0.14883,-12.28638 0.15864,-17.91548c-2.95562,-0.17578 -7.06729,-0.04248 -10.13818,-0.08364c-0.06621,-0.88154 -0.33398,-5.3083 0.02886,-5.82466l0.63398,-0.10664c3.24976,-0.0939 6.9561,-0.00879 10.24717,-0.00835l19.70815,-0.00103l16.87661,-0.00659c3.3208,-0.00483 6.9873,-0.08291 10.27295,0.04717c0.13916,2.03276 0.09375,3.91553 -0.02344,5.93862l-11.11963,0.00425l-0.01611,47.34111l-0.00586,15.9668c-0.00146,6.07764 -0.37354,12.92139 2.85938,18.27979c4.30664,7.13672 15.58008,6.37646 21.74414,2.31152c3.56104,-2.34814 5.76709,-6.23437 6.6709,-10.34473c0.271,-1.23193 0.25195,-2.60596 0.41162,-3.85693c0.51416,-3.97266 0.38965,-7.91748 0.38965,-11.92676l0.00146,-16.05615v-19.96436c-0.00146,-4.87354 0.43799,-14.53652 -1.42236,-19.14097c-1.10742,-2.74482 -7.24658,-2.53755 -10.10156,-3.11265l-0.28418,-0.05859c-0.0542,-1.8019 -0.02637,-3.59546 -0.01172,-5.3978c5.73633,-0.18721 12.26221,-0.02856 18.05859,-0.02285z" fill="#fefefe"/><path d="M89.24546,242.29688c15.62563,-0.25488 31.82578,-0.03955 47.49243,-0.03662l74.01504,0.01172c0.04395,1.66992 0.08496,3.32813 -0.13916,4.98486c-8.39209,0.14648 -17.19287,0.01904 -25.61865,0.01904l-50.94141,-0.00439l-29.36338,0.00732c-4.4064,0.00146 -11.19727,0.22266 -15.35142,-0.09521c-0.15234,-1.63477 -0.10664,-3.24609 -0.09346,-4.88672z" fill="#fefefe"/><path d="M185.38037,66.37441c4.81641,0.02651 9.66504,-0.09053 14.45508,0.20684c5.12842,0.31831 8.61621,3.7166 9.90967,8.55029c0.46729,1.74902 0.29004,3.18809 0.36328,4.9144c0.21973,5.15229 -1.17041,8.70908 -5.28955,11.86318c-3.54932,2.09268 -8.78906,1.75737 -12.76172,1.7436c-2.39648,0.0145 -4.7915,-0.01523 -7.18506,-0.08921c-0.06299,-0.90688 -0.09521,-1.84863 -0.1377,-2.75977c0.90674,-0.06914 1.84277,-0.08877 2.75391,-0.12114c0.0835,-7.13979 0.01318,-14.41143 0.00879,-21.56118c-1.09863,0.01597 -1.67725,-0.0397 -2.77588,-0.1667l-0.05566,-1.06567c-0.06006,-1.01426 -0.09961,-0.96885 0.71484,-1.51465z" fill="#fefefe"/><path d="M196.89404,68.83184c1.04883,-0.0104 1.49414,0.12993 2.51074,0.37676c0.87891,5.7895 0.68115,11.69956 0.5874,17.56714c-0.01904,1.2249 -0.36182,2.59585 -0.66797,3.78135c-0.80566,0.30527 -1.56738,0.54873 -2.3877,0.81079c-0.22998,-3.09668 -0.08643,-7.93535 -0.104,-11.15288c-0.01758,-3.26807 -0.16553,-8.22041 0.06152,-11.38315z" fill="#8e1e3a"/><path d="M89.21367,54.7834c6.65361,-0.10811 13.48301,-0.02446 20.15508,-0.02402l37.16982,-0.00015l41.0918,-0.00205c7.63916,0 15.3999,-0.06958 23.03174,0.03501c0.06006,1.6667 0.0542,2.87402 -0.02051,4.54028c-6.45117,0.2436 -14.16211,0.04014 -20.73779,0.03823l-38.78027,0.00527l-40.38589,-0.0063c-6.86191,0.00161 -14.73047,0.19907 -21.52588,-0.03721z" fill="#fefefe"/><path d="M153.62109,66.71602c3.02051,-0.13066 6.31494,0.00029 9.37354,-0.0334c2.43896,0.04614 4.67432,-0.10239 7.11768,0.14868c5.354,0.55005 8.54443,4.46221 6.03662,9.6936c-0.67236,1.40186 -2.94287,2.19478 -4.38867,2.54312c5.72754,2.33276 4.43262,6.28096 5.2998,11.04683l0.04102,0.22134c0.47754,-0.75498 0.3999,-1.39878 1.25977,-1.73159c1.67871,0.30454 1.7666,1.87749 0.60205,3.04395c-1.43848,1.45254 -3.39844,2.26846 -5.44189,2.26567c-2.16943,-0.01758 -3.7002,-0.74092 -5.17822,-2.28135c-1.98926,-2.51719 -1.66992,-7.88657 -1.99072,-11.01753c-0.60937,-0.03896 -1.3125,-0.04043 -1.93066,-0.05728c-0.22559,3.02051 -0.09229,7.04531 -0.0249,10.1146c0.90381,0.00264 1.68164,0.06694 2.58105,0.13916c0.10254,1.30283 0.10986,1.59961 -0.03076,2.91211c-0.25195,0.0123 -0.50391,0.02036 -0.75586,0.02402c-1.48389,0.02227 -13.00781,0.19497 -13.30664,-0.19204c-0.44531,-0.57788 -0.25781,-2.01372 -0.24463,-2.7249c0.91406,-0.08042 1.83838,-0.11089 2.75684,-0.15234c-0.27832,-6.63984 -0.00586,-14.47295 -0.07324,-21.26074l-0.5625,0.00249c-1.56885,0.00615 -3.0835,-0.49746 -1.92334,-2.47354c0.11133,-0.18882 0.54492,-0.19131 0.78369,-0.23086z" fill="#fefefe"/><path d="M164.3833,68.98975l1.73291,0.02842l1.05322,1.16777c0.13623,1.6582 0.37793,5.89614 -0.54346,7.18359c-0.74268,0.80479 -1.19971,0.59019 -2.23242,0.53892c-0.08203,-2.925 -0.0249,-5.9833 -0.01025,-8.9187z" fill="#8e1e3a"/><path d="M153.54639,98.22144c3.01025,-0.17725 6.30322,-0.03618 9.31494,-0.02007c4.16895,0.02241 8.40674,-0.54287 12.09082,1.78989c2.72754,1.72734 2.61914,6.03735 1.1792,8.53535c-0.86719,1.50615 -3.34717,1.82212 -4.85156,2.02485c4.39014,1.12896 5.53271,3.58564 5.72461,7.88379c0.03076,0.69302 -0.18604,2.61138 0.4043,2.94214c0.31641,-0.29355 0.44385,-0.96812 0.57422,-1.42075c1.20703,0.45059 3.1084,1.31851 1.57178,2.86025c-2.67773,2.68726 -6.94336,3.52441 -9.99609,0.83218c-3.18604,-3.75205 -2.12549,-6.22148 -2.41699,-10.90752c-0.60498,-0.62417 -1.07959,-1.16001 -1.99072,-0.91597c-0.51562,0.64658 -0.32812,8.90376 -0.32373,10.34033l2.45215,0.0772c0.02637,0.97383 -0.00732,1.99219 -0.02637,2.97085c-4.73584,0.0293 -9.47168,0.02856 -14.20605,-0.0019c-0.05713,-1.07505 -0.03076,-1.87075 0.01318,-2.94917l2.37012,-0.11616l0.00293,-21.02124l-2.36719,-0.05977c-0.07471,-0.88638 -0.49658,-2.61899 0.48047,-2.84429z" fill="#fefefe"/><path d="M164.83301,100.52534c0.81445,-0.01846 2.31445,-0.15747 2.39502,0.99199c0.16113,2.29102 0.19629,4.71372 -0.03076,6.99814c-0.11279,0.15645 -0.22705,0.31289 -0.34131,0.46919c-0.62842,0.3936 -1.03857,0.67397 -1.77979,0.40679c-0.479,-0.67339 -0.25195,-7.5583 -0.24316,-8.86611z" fill="#8e1e3a"/><path d="M104.92705,66.25503c3.64292,-0.1311 7.8167,-0.05273 11.5021,-0.07529c0.04336,0.9186 0.05479,1.87383 0.0769,2.79668l-2.43765,0.08804c-0.06416,4.18462 -0.08511,8.36997 -0.0627,12.55503c-0.00044,2.88501 -0.08877,6.196 0.1084,9.02739l2.31079,0.06899c0.0397,1.07944 0.02329,1.93154 -0.01948,3.01333c-2.99707,0.12437 -9.8042,0.11938 -12.68701,-0.07954c-0.06548,-1.6897 -0.46348,-2.4375 1.20791,-3.1333c0.15791,-2.90098 0.06299,-6.53877 0.06592,-9.49351l-4.0248,0.01128c0.05391,2.06792 -0.20449,7.61836 0.14341,9.2666c1.30576,1.24863 1.0314,1.6894 0.87539,3.42524c-3.76494,0.03516 -8.50488,0.14766 -12.20171,-0.05142c-0.09639,-0.96958 -0.07544,-1.91821 -0.07383,-2.89189c0.75103,-0.0958 1.65894,-0.12612 2.42622,-0.17183c0.23921,-6.6104 0.10781,-14.72446 0.02241,-21.39653c-0.54639,0.00542 -1.94575,0.05317 -2.40073,-0.19321c-0.22617,-0.51768 -0.16084,-2.38506 0.21533,-2.43311c2.9606,-0.37837 9.21885,-0.2105 11.99766,-0.20771c0.08848,0.78853 0.06357,1.52944 0.05435,2.31987l-1.0355,1.08545c-0.3561,1.627 -0.23657,6.24126 -0.23203,8.12915c1.29858,0.1084 2.85088,0.09478 4.17114,0.11587c0.10312,-2.5979 0.06724,-6.00234 -0.00923,-8.5853l-1.15796,-0.65391c-0.02314,-0.70503 -0.13872,-1.55669 0.14282,-2.16123c0.45322,-0.3791 0.34966,-0.26221 1.02188,-0.37515z" fill="#fefefe"/><path d="M104.2377,106.58701c-0.11572,-0.25503 -0.22456,-0.51313 -0.32651,-0.77402c-0.34717,-0.90044 -0.47417,-2.25791 -0.74839,-3.23525c-0.25283,-0.90088 -1.29302,-3.38408 -0.93838,-4.17671c1.51348,-0.41191 8.49902,-0.25605 10.42031,-0.25327c0.01172,0.84814 -0.03618,1.38984 -0.11616,2.21997c-0.29399,0.36929 -0.67017,0.77241 -0.98687,1.12998c0.26294,2.70015 1.5895,7.24541 2.14775,10.0459c0.07969,-0.94424 0.16567,-2.1438 0.36753,-3.0561c0.58901,-2.66279 1.40947,-4.33257 1.43452,-7.10156c-0.79043,-1.36729 -0.7626,-1.57705 -0.76948,-3.1106c1.84775,-0.08569 3.43491,-0.11895 5.28076,-0.05801l-0.01934,2.03789c-1.71035,1.67886 -1.67036,2.45347 -2.10981,4.81582c-0.10239,1.01016 -0.60601,2.67305 -0.84829,3.80757c-0.77109,3.55913 -1.57222,7.11167 -2.40322,10.65718c-0.44971,1.94839 -0.66489,3.96064 -1.49209,5.73354c-1.6623,0.00908 -3.32461,-0.0022 -4.98647,-0.03398c-0.30908,-1.07739 -0.58711,-2.09033 -0.77271,-3.19731c-0.57803,-3.45 -1.40449,-6.82002 -1.96465,-10.27939c-0.52368,2.77705 -2.31182,11.33774 -3.63457,13.45767c-1.55171,0.03193 -3.31831,0.06226 -4.84819,-0.07969c-1.45342,-5.54385 -2.83096,-11.10732 -4.13188,-16.68896c-0.55737,-2.36792 -1.36479,-4.80908 -1.56284,-7.18696c-0.6542,-0.18325 -1.28218,-0.41763 -1.92246,-0.64453c-0.02124,-0.23979 -0.04043,-0.47988 -0.05786,-0.71997c-0.04014,-0.56631 -0.13813,-1.28291 0.20522,-1.67681c1.40757,-0.06196 10.24863,-0.24976 10.89053,0.29414c0.26118,1.05322 -0.12319,1.98413 -0.42158,3.03604c0.73682,3.06841 2.02061,7.60269 2.4252,10.57749c0.49424,-1.7124 1.10786,-3.96768 1.88994,-5.54004z" fill="#fefefe"/><path d="M133.20571,98.19609c2.24634,-0.16772 4.53706,-0.2814 6.69067,0.70884c7.2457,3.33135 9.03281,13.00869 5.82231,19.7395c-1.72148,3.60938 -4.2123,5.26714 -7.91499,6.57378c-3.44209,0.11792 -5.34287,0.26543 -8.38081,-1.76396c-3.32505,-2.1646 -4.84556,-5.72593 -5.50269,-9.55254c-1.05938,-6.16787 2.66147,-14.50972 9.2855,-15.70562z" fill="#fefefe"/><path d="M135.3416,99.69316c2.91079,0.81094 1.25625,12.06006 1.69087,14.80225c0.26104,1.64663 0.02432,7.87354 -1.10962,8.89468c-0.68174,-0.11792 -0.87847,-0.10869 -1.4562,-0.45c-0.9104,-1.60898 -0.3873,-17.70967 -0.39653,-20.73911c-0.00396,-1.34312 0.33618,-1.68003 1.27148,-2.50781z" fill="#8e1e3a"/><path d="M200.72168,98.28618c2.52686,-0.18413 7.5791,-0.21123 10.04883,-0.03135l-0.00586,2.30918c-2.94287,0.47651 -4.25977,1.59814 -6.13037,3.7377c-1.96143,2.04185 -1.16016,3.17373 0.04248,5.42358c2.12256,3.97397 4.00049,8.29849 6.21973,12.23013c0.47607,0.38569 2.11377,0.26396 2.81689,0.26719c0.01465,1.00078 0.00732,2.01636 0.00879,3.0186c-4.32861,0.0876 -9.31055,0.05654 -13.62891,-0.02432c-0.01904,-0.78076 -0.10693,-2.06792 0.07178,-2.77998c0.36621,-0.21313 0.40869,-0.22017 0.70459,-0.51401c-0.08496,-1.15107 -3.37354,-6.18472 -4.16602,-7.43979c-0.20947,2.25586 -0.1333,5.32734 -0.09082,7.60474c0.55957,0.06606 0.84521,0.03354 1.24805,0.41396c0.39697,0.79321 0.19922,1.77612 0.14063,2.71172c-3.86865,0.07354 -9.55811,0.28491 -13.3125,-0.09111c-0.10693,-0.90894 -0.0791,-1.86621 -0.07764,-2.78437c0.94336,-0.08569 1.86621,-0.12363 2.8125,-0.16758c0.30029,-6.31348 0.0835,-14.63203 0.04102,-21.08848c-2.90771,0.08467 -2.8916,0.17021 -2.87549,-2.78994l1.93652,-0.08262c3.65771,-0.04585 8.69531,-0.17549 12.26074,0.06196l-0.01025,2.34741l-2.13867,0.22969c-0.20947,2.56025 -0.13184,6.5811 0.05273,9.13491c1.27881,-2.35283 6.22559,-7.22681 6.63721,-8.82187c-0.46289,-0.2896 -1.88525,-0.40854 -2.51367,-0.49189c-0.06885,-0.78604 -0.07324,-1.59287 -0.09229,-2.38345z" fill="#fefefe"/><path d="M131.30508,66.82119c1.3626,-0.05845 5.84268,-0.34395 6.8231,0.17578c1.13437,1.61924 4.95293,16.10083 5.99487,18.86353c0.33398,0.88564 0.71279,2.85981 1.16133,3.73315c0.24639,0.47988 0.69785,0.55313 1.1647,0.6397l0.66665,0.12378c0.99316,0.69521 0.65039,2.2812 0.57861,3.36973c-3.8729,0.01758 -9.91553,0.20771 -13.65923,-0.08174c-0.12407,-1.95586 -0.58257,-2.92573 1.65498,-3.36812c-0.24302,-0.77769 -0.46143,-1.62993 -0.85547,-2.33115c-0.33237,-0.26221 -0.51094,-0.61069 -0.74165,-0.97163c-0.54448,-0.31274 -4.725,-0.18662 -5.48789,-0.0186c-0.22104,0.23276 -0.37544,0.39507 -0.61875,0.60571l-0.18413,0.1582c-0.26191,0.66431 -0.62109,1.47363 -0.48413,2.17749c0.9252,1.60928 1.92422,-0.61963 1.69731,3.85371c-2.17529,0.00015 -4.57368,0.04673 -6.72847,-0.05889c0.00059,-0.92109 -0.01216,-1.88481 0.01245,-2.80107c0.86221,-0.19834 1.74053,-0.41074 2.21953,-1.22695c0.77285,-1.31704 6.6917,-21.54404 6.78618,-22.84263z" fill="#fefefe"/><path d="M128.62456,85.84761c1.78521,-0.03018 3.5707,-0.03647 5.3562,-0.0189c0.26294,0.67031 0.6293,1.46836 0.85386,2.11714c-0.33237,-0.26221 -0.51094,-0.61069 -0.74165,-0.97163c-0.54448,-0.31274 -4.725,-0.18662 -5.48789,-0.0186c-0.22104,0.23276 -0.37544,0.39507 -0.61875,0.60571l-0.18413,0.1582c0.26646,-0.64453 0.50537,-1.24863 0.82236,-1.87192z" fill="#8e1e3a"/><path d="M131.53022,76.73027l0.17373,0.19248c0.3252,1.91543 1.00034,3.82222 1.37754,6.13096c-0.73813,-0.05493 -1.51157,-0.08818 -2.25352,-0.12993l-1.74199,0.09771c0.76011,-1.82139 0.89414,-4.10508 1.82769,-5.86934c0.24683,-0.1689 0.45249,-0.30952 0.61655,-0.42187z" fill="#8e1e3a"/><path d="M201.72949,142.15151c4.51025,-0.54683 8.6001,2.68887 9.10547,7.20249c0.50537,4.51465 -2.76709,8.5752 -7.28613,9.03955c-4.46045,0.4585 -8.45801,-2.76416 -8.95752,-7.22021c-0.49805,-4.45605 2.68652,-8.48218 7.13818,-9.02183z" fill="#fefefe"/><path d="M198.93164,155.71143c-2.39355,-1.67285 -3.41309,-4.71387 -2.51221,-7.49268c0.90234,-2.77778 3.51416,-4.64019 6.43359,-4.58789c2.9209,0.05229 5.46387,2.00684 6.26514,4.81494c0.80127,2.80957 -0.32666,5.81104 -2.77881,7.39746c-0.41016,0.26514 -0.84961,0.48486 -1.30957,0.65479c-2.03906,0.75146 -4.31689,0.45703 -6.09814,-0.78662z" fill="#8e1e3a"/><path d="M199.48096,155.1709c0.0293,-1.48389 -0.14795,-9.47344 0.26514,-10.20249c0.95801,-0.37046 3.16846,-0.22368 4.20703,-0.07808c0.80566,0.73477 0.91113,0.85049 1.54248,1.77715c0.09814,2.33789 0.16699,2.52979 -1.21143,4.35352c0.44824,0.89502 2.2207,3.89795 1.84863,4.56592l0.20654,0.25635c-0.41016,0.26514 -0.84961,0.48486 -1.30957,0.65479c-2.03906,0.75146 -4.31689,0.45703 -6.09814,-0.78662c0.18457,-0.19775 0.35303,-0.35303 0.54932,-0.54053z" fill="#fefefe"/><path d="M201.84521,151.1499c0.38379,0.42773 0.70605,0.79395 0.99902,1.29492c1.00195,1.70947 0.75439,3.64014 3.28857,3.14209l0.20654,0.25635c-0.41016,0.26514 -0.84961,0.48486 -1.30957,0.65479c-2.03906,0.75146 -4.31689,0.45703 -6.09814,-0.78662c0.18457,-0.19775 0.35303,-0.35303 0.54932,-0.54053c0.58154,0.47314 0.62402,0.54346 1.32275,0.74707c1.50293,-0.24023 0.9082,-3.43652 1.0415,-4.76807z" fill="#8e1e3a"/><path d="M201.8291,146.86963c1.89551,-0.0249 2.23389,0.70459 1.38428,2.30566c-0.51416,0.33105 -0.80566,0.66504 -1.31689,0.25488c-0.24023,-0.69287 -0.10547,-1.78564 -0.06738,-2.56055z" fill="#8e1e3a"/><path d="M189.51123,230.14453c1.26855,-0.04541 2.29102,0.07031 2.9458,1.35059c0.25195,0.49805 0.29004,1.07813 0.10254,1.60547c-0.28418,0.82617 -1.00195,1.30078 -1.7373,1.68164c-2.04346,0.0542 -2.40234,-0.73242 -3.479,-2.27197c0.59326,-1.17627 1.00342,-1.77832 2.16797,-2.36572z" fill="#fefefe"/></g></svg></svg>